<svg width="10824" height="1240" viewBox="0 0 10824 1240" fill="none" xmlns="http://www.w3.org/2000/svg">
<path d="M1075.22 659.816C1105.89 659.816 1131.45 635.042 1131.45 603.71C1131.45 572.378 1105.89 548.332 1075.22 548.332C1043.83 548.332 1019 572.378 1019 603.71C1019 635.042 1043.83 659.816 1075.22 659.816ZM1035.06 1012.49H1115.38V704.993H1035.06V1012.49Z" fill="black"/>
<path d="M1207.62 1012.49H1287.94V858.739C1287.94 791.703 1317.15 763.285 1358.77 763.285C1400.39 763.285 1420.83 791.703 1420.83 844.895V1012.49H1500.42V858.739C1500.42 791.703 1530.36 763.285 1571.98 763.285C1613.6 763.285 1633.31 791.703 1633.31 844.895V1012.49H1713.63V831.779C1713.63 743.612 1668.36 694.063 1600.45 694.063C1549.34 694.063 1509.91 720.295 1490.2 767.657C1473.4 719.566 1436.16 694.063 1387.24 694.063C1344.16 694.063 1308.39 715.923 1287.94 757.456V704.993H1207.62V1012.49Z" fill="black"/>
<path d="M1781.92 858.739C1781.92 965.123 1852.74 1023.42 1923.57 1023.42C1965.92 1023.42 2007.54 1003.01 2031.63 961.48V1012.49H2111.22V704.993H2031.63V755.999C2007.54 714.466 1965.92 694.063 1923.57 694.063C1852.74 694.063 1781.92 752.356 1781.92 858.739ZM1945.47 763.285C1995.85 763.285 2033.09 798.261 2033.09 858.739C2033.09 919.218 1995.12 954.193 1945.47 954.193C1894.36 954.193 1862.96 912.66 1862.96 858.739C1862.96 804.819 1894.36 763.285 1945.47 763.285Z" fill="black"/>
<path d="M2392.16 704.993L2319.87 910.474L2250.51 704.993H2167.27L2278.25 1000.83L2222.76 1140H2300.16L2474.67 704.993H2392.16Z" fill="black"/>
<path d="M2511.37 858.739C2511.37 965.123 2582.2 1023.42 2653.02 1023.42C2695.37 1023.42 2736.99 1003.01 2761.09 961.48V1012.49H2840.67V704.993H2761.09V755.999C2736.99 714.466 2695.37 694.063 2653.02 694.063C2582.2 694.063 2511.37 752.356 2511.37 858.739ZM2674.93 763.285C2725.31 763.285 2762.55 798.261 2762.55 858.739C2762.55 919.218 2724.58 954.193 2674.93 954.193C2623.81 954.193 2592.42 912.66 2592.42 858.739C2592.42 804.819 2623.81 763.285 2674.93 763.285Z" fill="black"/>
<path d="M2932.5 1012.49H3012.82V517H2932.5V1012.49Z" fill="black"/>
<path d="M3086.8 858.739C3086.8 965.123 3157.63 1023.42 3228.46 1023.42C3270.8 1023.42 3312.42 1003.01 3336.52 961.48V1012.49H3416.11V704.993H3336.52V755.999C3312.42 714.466 3270.8 694.063 3228.46 694.063C3157.63 694.063 3086.8 752.356 3086.8 858.739ZM3250.36 763.285C3300.74 763.285 3337.98 798.261 3337.98 858.739C3337.98 919.218 3300.01 954.193 3250.36 954.193C3199.25 954.193 3167.85 912.66 3167.85 858.739C3167.85 804.819 3199.25 763.285 3250.36 763.285Z" fill="black"/>
<path d="M3697.04 704.993L3624.76 910.474L3555.39 704.993H3472.15L3583.14 1000.83L3527.65 1140H3605.04L3779.55 704.993H3697.04Z" fill="black"/>
<path d="M3816.26 858.739C3816.26 965.123 3887.08 1023.42 3957.91 1023.42C4000.26 1023.42 4041.88 1003.01 4065.97 961.48V1012.49H4145.56V704.993H4065.97V755.999C4041.88 714.466 4000.26 694.063 3957.91 694.063C3887.08 694.063 3816.26 752.356 3816.26 858.739ZM3979.81 763.285C4030.2 763.285 4067.43 798.261 4067.43 858.739C4067.43 919.218 4029.46 954.193 3979.81 954.193C3928.7 954.193 3897.3 912.66 3897.3 858.739C3897.3 804.819 3928.7 763.285 3979.81 763.285Z" fill="black"/>
<path d="M4237.39 1012.49H4317.7V857.282C4317.7 793.16 4348.37 763.285 4394.37 763.285C4437.45 763.285 4456.44 791.703 4456.44 844.895V1012.49H4536.02V831.779C4536.02 744.34 4491.48 694.063 4422.12 694.063C4377.58 694.063 4339.61 715.923 4317.7 759.642V704.993H4237.39V1012.49Z" fill="black"/>
<path d="M4974.7 1023.42C5106.87 1023.42 5215.66 922.132 5215.66 782.959C5215.66 643.786 5106.13 542.503 4974.7 542.503C4844.01 542.503 4734.48 643.786 4734.48 782.959C4734.48 922.132 4843.28 1023.42 4974.7 1023.42ZM4974.7 949.092C4883.43 949.092 4816.26 881.328 4816.26 782.959C4816.26 684.591 4883.43 616.826 4974.7 616.826C5065.98 616.826 5134.61 684.591 5134.61 782.959C5134.61 881.328 5065.98 949.092 4974.7 949.092Z" fill="black"/>
<path d="M5263.75 858.739C5263.75 965.123 5333.12 1023.42 5403.22 1023.42C5446.3 1023.42 5489.38 1003.01 5513.47 960.751V1012.49H5593.06V517H5513.47V756.728C5489.38 714.466 5446.3 694.063 5403.22 694.063C5333.12 694.063 5263.75 752.356 5263.75 858.739ZM5427.31 763.285C5477.69 763.285 5514.93 798.261 5514.93 858.739C5514.93 919.218 5477.69 954.193 5427.31 954.193C5376.2 954.193 5344.8 912.66 5344.8 858.739C5344.8 804.819 5376.2 763.285 5427.31 763.285Z" fill="black"/>
<path d="M5874 704.993L5801.71 910.474L5732.34 704.993H5649.1L5760.09 1000.83L5704.6 1140H5782L5956.51 704.993H5874Z" fill="black"/>
<path d="M6257.53 796.075C6253.15 729.039 6202.77 694.063 6125.37 694.063C6046.51 694.063 5999.05 731.225 5999.05 788.788C5999.05 840.523 6034.1 868.212 6087.4 880.599L6150.19 895.172C6174.29 900.273 6188.89 910.474 6188.89 927.961C6188.89 949.092 6169.18 963.666 6136.32 963.666C6098.35 963.666 6072.8 947.635 6069.14 912.66H5989.56C5992.48 978.239 6050.16 1023.42 6133.4 1023.42C6215.18 1023.42 6269.21 977.51 6269.21 917.76C6269.21 868.94 6240.73 843.437 6193.27 833.236L6120.99 817.206C6091.05 810.648 6077.18 801.175 6077.18 782.23C6077.18 764.014 6095.43 753.813 6123.91 753.813C6157.49 753.813 6178.67 767.657 6179.4 796.075H6257.53Z" fill="black"/>
<path d="M6583.39 796.075C6579.01 729.039 6528.63 694.063 6451.23 694.063C6372.37 694.063 6324.91 731.225 6324.91 788.788C6324.91 840.523 6359.96 868.212 6413.26 880.599L6476.06 895.172C6500.15 900.273 6514.76 910.474 6514.76 927.961C6514.76 949.092 6495.04 963.666 6462.19 963.666C6424.22 963.666 6398.66 947.635 6395.01 912.66H6315.42C6318.34 978.239 6376.03 1023.42 6459.26 1023.42C6541.04 1023.42 6595.08 977.51 6595.08 917.76C6595.08 868.94 6566.6 843.437 6519.14 833.236L6446.85 817.206C6416.91 810.648 6403.04 801.175 6403.04 782.23C6403.04 764.014 6421.3 753.813 6449.77 753.813C6483.36 753.813 6504.54 767.657 6505.27 796.075H6583.39Z" fill="black"/>
<path d="M6805.57 1023.42C6881.51 1023.42 6939.93 984.068 6956.72 915.574H6876.4C6869.1 941.806 6842.81 959.294 6805.57 959.294C6759.57 959.294 6730.37 932.333 6724.53 878.413H6959.64C6961.1 869.669 6961.83 860.196 6961.83 850.724C6961.83 757.456 6899.04 694.063 6804.84 694.063C6712.11 694.063 6643.48 761.828 6643.48 858.739C6643.48 954.193 6707.73 1023.42 6805.57 1023.42ZM6804.11 758.185C6847.19 758.185 6877.86 781.502 6881.51 825.221H6725.26C6732.56 779.316 6761.76 758.185 6804.11 758.185Z" fill="black"/>
<path d="M7223.09 704.993L7150.81 910.474L7081.44 704.993H6998.2L7109.19 1000.83L7053.69 1140H7131.09L7305.6 704.993H7223.09Z" fill="black"/>
<path d="M7500.37 1012.49H7579.96V656.902L7762.5 1012.49H7875.67V553.433H7796.09V916.303L7608.43 553.433H7500.37V1012.49Z" fill="black"/>
<path d="M8112.6 1023.42C8188.54 1023.42 8246.95 984.068 8263.75 915.574H8183.43C8176.13 941.806 8149.84 959.294 8112.6 959.294C8066.6 959.294 8037.39 932.333 8031.55 878.413H8266.67C8268.13 869.669 8268.86 860.196 8268.86 850.724C8268.86 757.456 8206.06 694.063 8111.87 694.063C8019.14 694.063 7950.5 761.828 7950.5 858.739C7950.5 954.193 8014.76 1023.42 8112.6 1023.42ZM8111.14 758.185C8154.22 758.185 8184.89 781.502 8188.54 825.221H8032.28C8039.58 779.316 8068.79 758.185 8111.14 758.185Z" fill="black"/>
<path d="M8341.01 1140H8421.32V960.751C8445.42 1003.01 8487.77 1023.42 8530.85 1023.42C8600.95 1023.42 8670.31 965.123 8670.31 858.739C8670.31 752.356 8600.95 694.063 8530.85 694.063C8487.77 694.063 8445.42 714.466 8421.32 756.728V704.993H8341.01V1140ZM8506.75 954.193C8456.37 954.193 8419.86 919.218 8419.86 858.739C8419.86 798.261 8457.1 763.285 8506.75 763.285C8557.87 763.285 8589.99 804.819 8589.99 858.739C8589.99 912.66 8557.87 954.193 8506.75 954.193Z" fill="black"/>
<path d="M8725.63 858.739C8725.63 965.123 8796.45 1023.42 8867.28 1023.42C8909.63 1023.42 8951.25 1003.01 8975.34 961.48V1012.49H9054.93V704.993H8975.34V755.999C8951.25 714.466 8909.63 694.063 8867.28 694.063C8796.45 694.063 8725.63 752.356 8725.63 858.739ZM8889.18 763.285C8939.57 763.285 8976.8 798.261 8976.8 858.739C8976.8 919.218 8938.84 954.193 8889.18 954.193C8838.07 954.193 8806.68 912.66 8806.68 858.739C8806.68 804.819 8838.07 763.285 8889.18 763.285Z" fill="black"/>
<path d="M9146.76 1012.49H9227.07V517H9146.76V1012.49Z" fill="black"/>
<path d="M9559.89 1012.49H9640.94V624.112H9783.32V553.433H9417.51V624.112H9559.89V1012.49Z" fill="black"/>
<path d="M9767.11 1012.49H9846.7V876.227C9846.7 807.005 9869.34 775.673 9932.13 775.673C9948.92 775.673 9964.99 777.859 9981.78 780.773V696.978C9975.21 695.52 9965.72 694.063 9955.5 694.063C9907.3 694.063 9867.88 718.837 9846.7 769.115V704.993H9767.11V1012.49Z" fill="black"/>
<path d="M10174.8 1023.42C10250.7 1023.42 10309.1 984.068 10325.9 915.574H10245.6C10238.3 941.806 10212 959.294 10174.8 959.294C10128.7 959.294 10099.5 932.333 10093.7 878.413H10328.8C10330.3 869.669 10331 860.196 10331 850.724C10331 757.456 10268.2 694.063 10174 694.063C10081.3 694.063 10012.7 761.828 10012.7 858.739C10012.7 954.193 10076.9 1023.42 10174.8 1023.42ZM10173.3 758.185C10216.4 758.185 10247 781.502 10250.7 825.221H10094.4C10101.7 779.316 10130.9 758.185 10173.3 758.185Z" fill="black"/>
<path d="M10403.2 1012.49H10483.5V876.227L10607.6 1012.49H10708.4L10557.2 850.724L10697.4 704.993H10603.2L10483.5 826.678V517H10403.2V1012.49Z" fill="black"/>
<circle cx="218.584" cy="394.404" r="52.7661" transform="rotate(10 218.584 394.404)" fill="black"/>
<circle cx="192.405" cy="542.874" r="52.7661" transform="rotate(10 192.405 542.874)" fill="black"/>
<circle cx="159.351" cy="880.942" r="52.7661" transform="rotate(10 159.351 880.942)" fill="black"/>
<circle cx="402.27" cy="961.599" r="52.7661" transform="rotate(10 402.27 961.599)" fill="black"/>
<circle cx="341.703" cy="602.874" r="79.8143" transform="rotate(10 341.703 602.874)" fill="black"/>
<circle cx="370.654" cy="438.684" r="79.8143" transform="rotate(10 370.654 438.684)" fill="black"/>
<path d="M292.052 424.824L449.256 452.543L397.975 743.369L262.639 591.634L292.052 424.824Z" fill="black"/>
<rect x="264.906" y="623.307" width="105.532" height="356.454" transform="rotate(-13.8109 264.906 623.307)" fill="black"/>
<path d="M280.479 782.869L243.054 638.607L114.4 853.475L204.688 908.112L280.479 782.869Z" fill="black"/>
<rect x="166.543" y="385.678" width="105.532" height="149.874" transform="rotate(10 166.543 385.678)" fill="black"/>
<circle cx="607.606" cy="598.881" r="39.4637" transform="rotate(10 607.606 598.881)" fill="black"/>
<circle cx="485.337" cy="577.321" r="39.4637" transform="rotate(10 485.337 577.321)" fill="black"/>
<rect x="368.942" y="433.073" width="78.0406" height="183.737" transform="rotate(-26.6329 368.942 433.073)" fill="black"/>
<rect x="593.735" y="556.215" width="78.9275" height="105.645" transform="rotate(100 593.735 556.215)" fill="black"/>
<circle cx="423.334" cy="239.505" r="101.542" transform="rotate(10 423.334 239.505)" fill="black"/>
<path fill-rule="evenodd" clip-rule="evenodd" d="M647.135 1011.79H567.127V553.607H647.135V745.698H647.127V818.698H647.135V1011.79ZM672.127 818.335H867.521V1011.79H947.53V553.607H867.521V746.335H672.127V818.335Z" fill="black"/>
</svg>
