<svg width="10052" height="1118" viewBox="0 0 10052 1118" fill="none" xmlns="http://www.w3.org/2000/svg">
<g clip-path="url(#clip0)">
<path d="M1075.22 659.816C1105.89 659.816 1131.45 635.042 1131.45 603.71C1131.45 572.378 1105.89 548.332 1075.22 548.332C1043.83 548.332 1019 572.378 1019 603.71C1019 635.042 1043.83 659.816 1075.22 659.816ZM1035.06 1012.49H1115.38V704.993H1035.06V1012.49Z" fill="black"/>
<path d="M1207.62 1012.49H1287.94V858.739C1287.94 791.703 1317.15 763.285 1358.77 763.285C1400.39 763.285 1420.83 791.703 1420.83 844.895V1012.49H1500.42V858.739C1500.42 791.703 1530.36 763.285 1571.98 763.285C1613.6 763.285 1633.31 791.703 1633.31 844.895V1012.49H1713.63V831.779C1713.63 743.612 1668.36 694.063 1600.45 694.063C1549.34 694.063 1509.91 720.295 1490.2 767.657C1473.4 719.566 1436.16 694.063 1387.24 694.063C1344.16 694.063 1308.39 715.923 1287.94 757.456V704.993H1207.62V1012.49Z" fill="black"/>
<path d="M1781.37 858.739C1781.37 965.123 1852.2 1023.42 1923.02 1023.42C1965.37 1023.42 2006.99 1003.01 2031.09 961.48V1012.49H2110.67V704.993H2031.09V755.999C2006.99 714.466 1965.37 694.063 1923.02 694.063C1852.2 694.063 1781.37 752.356 1781.37 858.739ZM1944.93 763.285C1995.31 763.285 2032.55 798.261 2032.55 858.739C2032.55 919.218 1994.58 954.193 1944.93 954.193C1893.81 954.193 1862.42 912.66 1862.42 858.739C1862.42 804.819 1893.81 763.285 1944.93 763.285Z" fill="black"/>
<path d="M2202.5 1012.49H2282.82V517H2202.5V1012.49Z" fill="black"/>
<path d="M2356.8 858.739C2356.8 965.123 2427.63 1023.42 2498.46 1023.42C2540.8 1023.42 2582.42 1003.01 2606.52 961.48V1012.49H2686.11V704.993H2606.52V755.999C2582.42 714.466 2540.8 694.063 2498.46 694.063C2427.63 694.063 2356.8 752.356 2356.8 858.739ZM2520.36 763.285C2570.74 763.285 2607.98 798.261 2607.98 858.739C2607.98 919.218 2570.01 954.193 2520.36 954.193C2469.25 954.193 2437.85 912.66 2437.85 858.739C2437.85 804.819 2469.25 763.285 2520.36 763.285Z" fill="black"/>
<path d="M2967.04 704.993L2894.76 910.474L2825.39 704.993H2742.15L2853.14 1000.83L2797.65 1140H2875.04L3049.55 704.993H2967.04Z" fill="black"/>
<path d="M3086.26 858.739C3086.26 965.123 3157.08 1023.42 3227.91 1023.42C3270.26 1023.42 3311.88 1003.01 3335.97 961.48V1012.49H3415.56V704.993H3335.97V755.999C3311.88 714.466 3270.26 694.063 3227.91 694.063C3157.08 694.063 3086.26 752.356 3086.26 858.739ZM3249.81 763.285C3300.2 763.285 3337.43 798.261 3337.43 858.739C3337.43 919.218 3299.47 954.193 3249.81 954.193C3198.7 954.193 3167.3 912.66 3167.3 858.739C3167.3 804.819 3198.7 763.285 3249.81 763.285Z" fill="black"/>
<path d="M3507.39 1012.49H3587.7V857.282C3587.7 793.16 3618.37 763.285 3664.37 763.285C3707.45 763.285 3726.44 791.703 3726.44 844.895V1012.49H3806.02V831.779C3806.02 744.34 3761.48 694.063 3692.12 694.063C3647.58 694.063 3609.61 715.923 3587.7 759.642V704.993H3507.39V1012.49Z" fill="black"/>
<path d="M4244.71 1023.42C4376.87 1023.42 4485.66 922.132 4485.66 782.959C4485.66 643.786 4376.14 542.503 4244.71 542.503C4114.01 542.503 4004.48 643.786 4004.48 782.959C4004.48 922.132 4113.28 1023.42 4244.71 1023.42ZM4244.71 949.092C4153.43 949.092 4086.26 881.328 4086.26 782.959C4086.26 684.591 4153.43 616.826 4244.71 616.826C4335.98 616.826 4404.61 684.591 4404.61 782.959C4404.61 881.328 4335.98 949.092 4244.71 949.092Z" fill="black"/>
<path d="M4533.75 858.739C4533.75 965.123 4603.12 1023.42 4673.22 1023.42C4716.3 1023.42 4759.38 1003.01 4783.47 960.751V1012.49H4863.06V517H4783.47V756.728C4759.38 714.466 4716.3 694.063 4673.22 694.063C4603.12 694.063 4533.75 752.356 4533.75 858.739ZM4697.31 763.285C4747.69 763.285 4784.93 798.261 4784.93 858.739C4784.93 919.218 4747.69 954.193 4697.31 954.193C4646.2 954.193 4614.8 912.66 4614.8 858.739C4614.8 804.819 4646.2 763.285 4697.31 763.285Z" fill="black"/>
<path d="M5144 704.993L5071.71 910.474L5002.34 704.993H4919.1L5030.09 1000.83L4974.6 1140H5052L5226.51 704.993H5144Z" fill="black"/>
<path d="M5527.53 796.075C5523.15 729.039 5472.77 694.063 5395.37 694.063C5316.51 694.063 5269.05 731.225 5269.05 788.788C5269.05 840.523 5304.1 868.212 5357.4 880.599L5420.19 895.172C5444.29 900.273 5458.89 910.474 5458.89 927.961C5458.89 949.092 5439.18 963.666 5406.32 963.666C5368.35 963.666 5342.8 947.635 5339.14 912.66H5259.56C5262.48 978.239 5320.16 1023.42 5403.4 1023.42C5485.18 1023.42 5539.21 977.51 5539.21 917.76C5539.21 868.94 5510.73 843.437 5463.27 833.236L5390.99 817.206C5361.05 810.648 5347.18 801.175 5347.18 782.23C5347.18 764.014 5365.43 753.813 5393.91 753.813C5427.49 753.813 5448.67 767.657 5449.4 796.075H5527.53Z" fill="black"/>
<path d="M5853.39 796.075C5849.01 729.039 5798.63 694.063 5721.23 694.063C5642.37 694.063 5594.91 731.225 5594.91 788.788C5594.91 840.523 5629.96 868.212 5683.26 880.599L5746.06 895.172C5770.15 900.273 5784.76 910.474 5784.76 927.961C5784.76 949.092 5765.04 963.666 5732.19 963.666C5694.22 963.666 5668.66 947.635 5665.01 912.66H5585.42C5588.34 978.239 5646.03 1023.42 5729.26 1023.42C5811.04 1023.42 5865.08 977.51 5865.08 917.76C5865.08 868.94 5836.6 843.437 5789.14 833.236L5716.85 817.206C5686.91 810.648 5673.04 801.175 5673.04 782.23C5673.04 764.014 5691.3 753.813 5719.77 753.813C5753.36 753.813 5774.53 767.657 5775.27 796.075H5853.39Z" fill="black"/>
<path d="M6075.57 1023.42C6151.51 1023.42 6209.92 984.068 6226.72 915.574H6146.4C6139.1 941.806 6112.81 959.294 6075.57 959.294C6029.57 959.294 6000.37 932.333 5994.53 878.413H6229.64C6231.1 869.669 6231.83 860.196 6231.83 850.724C6231.83 757.456 6169.04 694.063 6074.84 694.063C5982.11 694.063 5913.48 761.828 5913.48 858.739C5913.48 954.193 5977.73 1023.42 6075.57 1023.42ZM6074.11 758.185C6117.19 758.185 6147.86 781.502 6151.51 825.221H5995.26C6002.56 779.316 6031.76 758.185 6074.11 758.185Z" fill="black"/>
<path d="M6493.09 704.993L6420.81 910.474L6351.44 704.993H6268.2L6379.19 1000.83L6323.69 1140H6401.09L6575.6 704.993H6493.09Z" fill="black"/>
<path d="M6770.37 1012.49H6849.96V656.902L7032.5 1012.49H7145.67V553.433H7066.08V916.303L6878.43 553.433H6770.37V1012.49Z" fill="black"/>
<path d="M7382.6 1023.42C7458.54 1023.42 7516.95 984.068 7533.75 915.574H7453.43C7446.13 941.806 7419.84 959.294 7382.6 959.294C7336.6 959.294 7307.39 932.333 7301.55 878.413H7536.67C7538.13 869.669 7538.86 860.196 7538.86 850.724C7538.86 757.456 7476.06 694.063 7381.87 694.063C7289.14 694.063 7220.5 761.828 7220.5 858.739C7220.5 954.193 7284.76 1023.42 7382.6 1023.42ZM7381.14 758.185C7424.22 758.185 7454.89 781.502 7458.54 825.221H7302.28C7309.58 779.316 7338.79 758.185 7381.14 758.185Z" fill="black"/>
<path d="M7611.01 1140H7691.32V960.751C7715.42 1003.01 7757.77 1023.42 7800.85 1023.42C7870.95 1023.42 7940.31 965.123 7940.31 858.739C7940.31 752.356 7870.95 694.063 7800.85 694.063C7757.77 694.063 7715.42 714.466 7691.32 756.728V704.993H7611.01V1140ZM7776.75 954.193C7726.37 954.193 7689.86 919.218 7689.86 858.739C7689.86 798.261 7727.1 763.285 7776.75 763.285C7827.87 763.285 7859.99 804.819 7859.99 858.739C7859.99 912.66 7827.87 954.193 7776.75 954.193Z" fill="black"/>
<path d="M7995.63 858.739C7995.63 965.123 8066.45 1023.42 8137.28 1023.42C8179.63 1023.42 8221.25 1003.01 8245.34 961.48V1012.49H8324.93V704.993H8245.34V755.999C8221.25 714.466 8179.63 694.063 8137.28 694.063C8066.45 694.063 7995.63 752.356 7995.63 858.739ZM8159.18 763.285C8209.57 763.285 8246.8 798.261 8246.8 858.739C8246.8 919.218 8208.84 954.193 8159.18 954.193C8108.07 954.193 8076.68 912.66 8076.68 858.739C8076.68 804.819 8108.07 763.285 8159.18 763.285Z" fill="black"/>
<path d="M8416.76 1012.49H8497.08V517H8416.76V1012.49Z" fill="black"/>
<path d="M8829.89 1012.49H8910.94V624.112H9053.32V553.433H8687.51V624.112H8829.89V1012.49Z" fill="black"/>
<path d="M9037.11 1012.49H9116.7V876.227C9116.7 807.005 9139.34 775.673 9202.13 775.673C9218.92 775.673 9234.99 777.859 9251.78 780.773V696.978C9245.21 695.52 9235.72 694.063 9225.5 694.063C9177.3 694.063 9137.88 718.837 9116.7 769.115V704.993H9037.11V1012.49Z" fill="black"/>
<path d="M9444.75 1023.42C9520.69 1023.42 9579.1 984.068 9595.9 915.574H9515.58C9508.28 941.806 9481.99 959.294 9444.75 959.294C9398.75 959.294 9369.54 932.333 9363.7 878.413H9598.82C9600.28 869.669 9601.01 860.196 9601.01 850.724C9601.01 757.456 9538.21 694.063 9444.02 694.063C9351.29 694.063 9282.65 761.828 9282.65 858.739C9282.65 954.193 9346.91 1023.42 9444.75 1023.42ZM9443.29 758.185C9486.37 758.185 9517.04 781.502 9520.69 825.221H9364.43C9371.73 779.316 9400.94 758.185 9443.29 758.185Z" fill="black"/>
<path d="M9673.16 1012.49H9753.47V876.227L9877.6 1012.49H9978.37L9827.22 850.724L9967.41 704.993H9873.22L9753.47 826.678V517H9673.16V1012.49Z" fill="black"/>
<circle cx="218.584" cy="394.404" r="52.7661" transform="rotate(10 218.584 394.404)" fill="black"/>
<circle cx="192.405" cy="542.874" r="52.7661" transform="rotate(10 192.405 542.874)" fill="black"/>
<circle cx="159.351" cy="880.942" r="52.7661" transform="rotate(10 159.351 880.942)" fill="black"/>
<circle cx="402.27" cy="961.599" r="52.7661" transform="rotate(10 402.27 961.599)" fill="black"/>
<circle cx="341.703" cy="602.874" r="79.8143" transform="rotate(10 341.703 602.874)" fill="black"/>
<circle cx="370.654" cy="438.684" r="79.8143" transform="rotate(10 370.654 438.684)" fill="black"/>
<path d="M292.052 424.824L449.256 452.543L397.975 743.369L262.639 591.634L292.052 424.824Z" fill="black"/>
<rect x="264.906" y="623.307" width="105.532" height="356.454" transform="rotate(-13.8109 264.906 623.307)" fill="black"/>
<path d="M280.479 782.869L243.054 638.607L114.4 853.475L204.688 908.112L280.479 782.869Z" fill="black"/>
<rect x="166.543" y="385.678" width="105.532" height="149.874" transform="rotate(10 166.543 385.678)" fill="black"/>
<circle cx="607.606" cy="598.881" r="39.4637" transform="rotate(10 607.606 598.881)" fill="black"/>
<circle cx="485.337" cy="577.321" r="39.4637" transform="rotate(10 485.337 577.321)" fill="black"/>
<rect x="368.942" y="433.073" width="78.0406" height="183.737" transform="rotate(-26.6329 368.942 433.073)" fill="black"/>
<rect x="593.735" y="556.215" width="78.9275" height="105.645" transform="rotate(100 593.735 556.215)" fill="black"/>
<circle cx="423.334" cy="239.505" r="101.542" transform="rotate(10 423.334 239.505)" fill="black"/>
<path fill-rule="evenodd" clip-rule="evenodd" d="M647.135 1011.79H567.127V553.607H647.135V745.698H647.127V818.698H647.135V1011.79ZM672.127 818.335H867.521V1011.79H947.53V553.607H867.521V746.335H672.127V818.335Z" fill="black"/>
</g>
<defs>
<clipPath id="clip0">
<rect width="10052" height="1118" fill="white"/>
</clipPath>
</defs>
</svg>
