<svg width="1500" height="1500" viewBox="0 0 1500 1500" fill="none" xmlns="http://www.w3.org/2000/svg">
<g clip-path="url(#clip0)">
<circle cx="279.374" cy="461.648" r="83.8165" transform="rotate(10 279.374 461.648)" fill="black"/>
<circle cx="237.789" cy="697.486" r="83.8165" transform="rotate(10 237.789 697.486)" fill="black"/>
<circle cx="185.285" cy="1234.49" r="83.8165" transform="rotate(10 185.285 1234.49)" fill="black"/>
<circle cx="571.148" cy="1362.61" r="83.8165" transform="rotate(10 571.148 1362.61)" fill="black"/>
<circle cx="474.941" cy="792.791" r="126.781" transform="rotate(10 474.941 792.791)" fill="black"/>
<circle cx="520.929" cy="531.984" r="126.781" transform="rotate(10 520.929 531.984)" fill="black"/>
<path d="M396.074 509.968L645.785 553.999L564.328 1015.96L349.353 774.939L396.074 509.968Z" fill="black"/>
<rect x="352.953" y="825.248" width="167.633" height="566.21" transform="rotate(-13.8109 352.953 825.248)" fill="black"/>
<path d="M377.69 1078.7L318.243 849.552L113.882 1190.86L257.299 1277.65L377.69 1078.7Z" fill="black"/>
<rect x="196.708" y="447.786" width="167.633" height="238.067" transform="rotate(10 196.708 447.786)" fill="black"/>
<circle cx="897.316" cy="786.45" r="62.6863" transform="rotate(10 897.316 786.45)" fill="black"/>
<circle cx="703.098" cy="752.204" r="62.6863" transform="rotate(10 703.098 752.204)" fill="black"/>
<rect x="518.21" y="523.072" width="123.964" height="291.858" transform="rotate(-26.6329 518.21 523.072)" fill="black"/>
<rect x="875.283" y="718.676" width="125.373" height="167.812" transform="rotate(100 875.283 718.676)" fill="black"/>
<circle cx="604.609" cy="215.598" r="161.294" transform="rotate(10 604.609 215.598)" fill="black"/>
<path fill-rule="evenodd" clip-rule="evenodd" d="M960.108 1442.34H833.019V714.535H960.108V1019.66H960.095V1135.62H960.108V1442.34ZM999.806 1135.04H1310.18V1442.34H1437.27V714.535H1310.18V1020.67H999.806V1135.04Z" fill="black"/>
</g>
<defs>
<clipPath id="clip0">
<rect width="1500" height="1500" fill="white"/>
</clipPath>
</defs>
</svg>
