<svg width="2288" height="1024" viewBox="0 0 2288 1024" fill="none" xmlns="http://www.w3.org/2000/svg">
<path d="M1173.4 951.698C1298.99 951.698 1402.37 855.241 1402.37 722.698C1402.37 590.156 1298.29 493.698 1173.4 493.698C1049.2 493.698 945.127 590.156 945.127 722.698C945.127 855.241 1048.51 951.698 1173.4 951.698ZM1173.4 880.916C1086.67 880.916 1022.84 816.38 1022.84 722.698C1022.84 629.016 1086.67 564.48 1173.4 564.48C1260.13 564.48 1325.35 629.016 1325.35 722.698C1325.35 816.38 1260.13 880.916 1173.4 880.916Z" fill="black"/>
<path d="M1467.5 941.289H1543.13V602.647L1716.59 941.289H1824.14V504.107H1748.51V849.689L1570.19 504.107H1467.5V941.289Z" fill="black"/>
<path d="M2011.81 941.289H2088.83V571.419H2224.13V504.107H1876.51V571.419H2011.81V941.289Z" fill="black"/>
<circle cx="152.584" cy="334.404" r="52.7661" transform="rotate(10 152.584 334.404)" fill="black"/>
<circle cx="126.405" cy="482.874" r="52.7661" transform="rotate(10 126.405 482.874)" fill="black"/>
<circle cx="93.3511" cy="820.942" r="52.7661" transform="rotate(10 93.3511 820.942)" fill="black"/>
<circle cx="336.27" cy="901.599" r="52.7661" transform="rotate(10 336.27 901.599)" fill="black"/>
<circle cx="275.703" cy="542.874" r="79.8143" transform="rotate(10 275.703 542.874)" fill="black"/>
<circle cx="304.654" cy="378.684" r="79.8143" transform="rotate(10 304.654 378.684)" fill="black"/>
<path d="M226.052 364.824L383.256 392.543L331.975 683.369L196.639 531.634L226.052 364.824Z" fill="black"/>
<rect x="198.906" y="563.307" width="105.532" height="356.454" transform="rotate(-13.8109 198.906 563.307)" fill="black"/>
<path d="M214.479 722.869L177.054 578.607L48.4005 793.475L138.688 848.112L214.479 722.869Z" fill="black"/>
<rect x="100.543" y="325.678" width="105.532" height="149.874" transform="rotate(10 100.543 325.678)" fill="black"/>
<circle cx="541.606" cy="538.881" r="39.4637" transform="rotate(10 541.606 538.881)" fill="black"/>
<circle cx="419.337" cy="517.321" r="39.4637" transform="rotate(10 419.337 517.321)" fill="black"/>
<rect x="302.942" y="373.073" width="78.0406" height="183.737" transform="rotate(-26.6329 302.942 373.073)" fill="black"/>
<rect x="527.735" y="496.215" width="78.9275" height="105.645" transform="rotate(100 527.735 496.215)" fill="black"/>
<circle cx="357.334" cy="179.505" r="101.542" transform="rotate(10 357.334 179.505)" fill="black"/>
<path fill-rule="evenodd" clip-rule="evenodd" d="M581.135 951.789H501.127V493.607H581.135V685.698H581.127V758.698H581.135V951.789ZM606.127 758.335H801.521V951.789H881.53V493.607H801.521V686.335H606.127V758.335Z" fill="black"/>
</svg>
